<?xml version="1.0" encoding="utf-8"?>
<!-- Generator: Fusion 360, Shaper Origin Export Add-In, Version 1.6.3  -->
<svg xmlns="http://www.w3.org/2000/svg" xmlns:xlink="http://www.w3.org/1999/xlink" xmlns:shaper="http://www.shapertools.com/namespaces/shaper" shaper:fusionaddin="version:1.6.3" width="10.15cm" height="8cm" version="1.1" x="0cm" y="0cm" viewBox="0 0 10.15 8" enable-background="new 0 0 10.15 8" xml:space="preserve"><path d="M-0.2,1.2832051 L-0.2,0.2 A0.2,0.2 180 0,1 -0,-0 L8.85,0 A0.2,0.2 270 0,1 9.05,0.2 L9.05,1.2832051 A0.1,0.1 0 0,1 9.0366025,1.3332051 L8.9864915,1.42 A0.06,0.06 210 0,0 9.038453,1.51 L9.2171573,1.51 A0.2,0.2 270 0,1 9.3585786,1.5685786 L9.4414214,1.6514214 A0.2,0.2 315 0,1 9.5,1.7928427 L9.5,2.4071573 A0.2,0.2 0 0,1 9.4414214,2.5485786 L9.3585786,2.6314214 A0.2,0.2 45 0,1 9.2171573,2.69 L9.038453,2.69 A0.06,0.06 270 0,0 8.9864915,2.78 L9.0366025,2.8667949 A0.1,0.1 330 0,1 9.05,2.9167949 L9.05,5.0832051 A0.1,0.1 0 0,1 9.0366025,5.1332051 L8.9864915,5.22 A0.06,0.06 210 0,0 9.038453,5.31 L9.2171573,5.31 A0.2,0.2 270 0,1 9.3585786,5.3685786 L9.4414214,5.4514214 A0.2,0.2 315 0,1 9.5,5.5928427 L9.5,6.2071573 A0.2,0.2 0 0,1 9.4414214,6.3485786 L9.3585786,6.4314214 A0.2,0.2 45 0,1 9.2171573,6.49 L9.038453,6.49 A0.06,0.06 270 0,0 8.9864915,6.58 L9.0366025,6.6667949 A0.1,0.1 330 0,1 9.05,6.7167949 L9.05,7.8 A0.2,0.2 0 0,1 8.85,8 L-0,8 A0.2,0.2 90 0,1 -0.2,7.8 L-0.2,6.7167949 A0.1,0.1 180 0,1 -0.1866025,6.6667949 L-0.1364915,6.58 A0.06,0.06 30 0,0 -0.188453,6.49 L-0.3671573,6.49 A0.2,0.2 90 0,1 -0.5085786,6.4314214 L-0.5914214,6.3485786 A0.2,0.2 135 0,1 -0.65,6.2071573 L-0.65,5.5928427 A0.2,0.2 180 0,1 -0.5914214,5.4514214 L-0.5085786,5.3685786 A0.2,0.2 225 0,1 -0.3671573,5.31 L-0.188453,5.31 A0.06,0.06 90 0,0 -0.1364915,5.22 L-0.1866025,5.1332051 A0.1,0.1 150 0,1 -0.2,5.0832051 L-0.2,2.9167949 A0.1,0.1 180 0,1 -0.1866025,2.8667949 L-0.1364915,2.78 A0.06,0.06 30 0,0 -0.188453,2.69 L-0.3671573,2.69 A0.2,0.2 90 0,1 -0.5085786,2.6314214 L-0.5914214,2.5485786 A0.2,0.2 135 0,1 -0.65,2.4071573 L-0.65,1.7928427 A0.2,0.2 180 0,1 -0.5914214,1.6514214 L-0.5085786,1.5685786 A0.2,0.2 225 0,1 -0.3671573,1.51 L-0.188453,1.51 A0.06,0.06 90 0,0 -0.1364915,1.42 L-0.1866025,1.3332051 A0.1,0.1 150 0,1 -0.2,1.2832051z" transform="matrix(1,0,0,-1,0.65,8)" fill="rgb(0,0,0)" shaper:cutDepth="0.0025" stroke-linecap="round" stroke-linejoin="round" /><path d="M2.53,5.765 a0.15,0.15 0 1,1 0.3,0 a0.15,0.15 0 1,1 -0.3,0z" transform="matrix(1,0,0,-1,0.65,8)" fill="rgb(255,255,255)" stroke="rgb(0,0,0)" stroke-width="0.0010cm" stroke-linecap="round" stroke-linejoin="round" shaper:cutDepth="0.0025" /><path d="M3.47,7.54 a0.15,0.15 0 1,1 0.3,0 a0.15,0.15 0 1,1 -0.3,0z" transform="matrix(1,0,0,-1,0.65,8)" fill="rgb(255,255,255)" stroke="rgb(0,0,0)" stroke-width="0.0010cm" stroke-linecap="round" stroke-linejoin="round" shaper:cutDepth="0.0025" /><path d="M2.53,7.54 a0.15,0.15 0 1,1 0.3,0 a0.15,0.15 0 1,1 -0.3,0z" transform="matrix(1,0,0,-1,0.65,8)" fill="rgb(255,255,255)" stroke="rgb(0,0,0)" stroke-width="0.0010cm" stroke-linecap="round" stroke-linejoin="round" shaper:cutDepth="0.0025" /><path d="M3.47,5.765 a0.15,0.15 0 1,1 0.3,0 a0.15,0.15 0 1,1 -0.3,0z" transform="matrix(1,0,0,-1,0.65,8)" fill="rgb(255,255,255)" stroke="rgb(0,0,0)" stroke-width="0.0010cm" stroke-linecap="round" stroke-linejoin="round" shaper:cutDepth="0.0025" /><path d="M0.32,4.8 a0.18,0.18 0 1,1 0.36,0 a0.18,0.18 0 1,1 -0.36,0z" transform="matrix(1,0,0,-1,0.65,8)" fill="rgb(255,255,255)" stroke="rgb(0,0,0)" stroke-width="0.0010cm" stroke-linecap="round" stroke-linejoin="round" shaper:cutDepth="0.0025" /><path d="M0.32,3.2 a0.18,0.18 0 1,1 0.36,0 a0.18,0.18 0 1,1 -0.36,0z" transform="matrix(1,0,0,-1,0.65,8)" fill="rgb(255,255,255)" stroke="rgb(0,0,0)" stroke-width="0.0010cm" stroke-linecap="round" stroke-linejoin="round" shaper:cutDepth="0.0025" /><path d="M8.17,3.2 a0.18,0.18 0 1,1 0.36,0 a0.18,0.18 0 1,1 -0.36,0z" transform="matrix(1,0,0,-1,0.65,8)" fill="rgb(255,255,255)" stroke="rgb(0,0,0)" stroke-width="0.0010cm" stroke-linecap="round" stroke-linejoin="round" shaper:cutDepth="0.0025" /><path d="M8.17,4.8 a0.18,0.18 0 1,1 0.36,0 a0.18,0.18 0 1,1 -0.36,0z" transform="matrix(1,0,0,-1,0.65,8)" fill="rgb(255,255,255)" stroke="rgb(0,0,0)" stroke-width="0.0010cm" stroke-linecap="round" stroke-linejoin="round" shaper:cutDepth="0.0025" /></svg>
