<?xml version="1.0" encoding="utf-8"?>
<!-- Generator: Fusion 360, Shaper Origin Export Add-In, Version 1.6.3  -->
<svg xmlns="http://www.w3.org/2000/svg" xmlns:xlink="http://www.w3.org/1999/xlink" xmlns:shaper="http://www.shapertools.com/namespaces/shaper" shaper:fusionaddin="version:1.6.3" width="9.44cm" height="7.75cm" version="1.1" x="0cm" y="0cm" viewBox="0 0 9.44 7.75" enable-background="new 0 0 9.44 7.75" xml:space="preserve"><path d="M7.488453,1.5 L7.9371573,1.5 A0.2,0.2 270 0,1 8.0785786,1.5585786 L8.1614214,1.6414214 A0.2,0.2 315 0,1 8.22,1.7828427 L8.22,2.4171573 A0.2,0.2 0 0,1 8.1614214,2.5585786 L8.0785786,2.6414214 A0.2,0.2 45 0,1 7.9371573,2.7 L7.488453,2.7 A0.06,0.06 270 0,0 7.4364915,2.79 L7.4866025,2.8767949 A0.1,0.1 330 0,1 7.5,2.9267949 L7.5,5.8 A1.5,1.5 0 0,1 6,7.3 L4.3267949,7.3 A0.1,0.1 90 0,1 4.2767949,7.2866025 L4.19,7.2364915 A0.06,0.06 300 0,0 4.1,7.288453 L4.1,7.4671573 A0.2,0.2 0 0,1 4.0414214,7.6085786 L3.9585786,7.6914214 A0.2,0.2 45 0,1 3.8171573,7.75 L3.1828427,7.75 A0.2,0.2 90 0,1 3.0414214,7.6914214 L2.9585786,7.6085786 A0.2,0.2 135 0,1 2.9,7.4671573 L2.9,7.288453 A0.06,0.06 0 0,0 2.81,7.2364915 L2.7232051,7.2866025 A0.1,0.1 60 0,1 2.6732051,7.3 L1,7.3 A1.5,1.5 90 0,1 -0.5,5.8 L-0.5,2.9267949 A0.1,0.1 180 0,1 -0.4866025,2.8767949 L-0.4364915,2.79 A0.06,0.06 30 0,0 -0.488453,2.7 L-0.9371573,2.7 A0.2,0.2 90 0,1 -1.0785786,2.6414214 L-1.1614214,2.5585786 A0.2,0.2 135 0,1 -1.22,2.4171573 L-1.22,1.7828427 A0.2,0.2 180 0,1 -1.1614214,1.6414214 L-1.0785786,1.5585786 A0.2,0.2 225 0,1 -0.9371573,1.5 L-0.488453,1.5 A0.06,0.06 90 0,0 -0.4364915,1.41 L-0.4866025,1.3232051 A0.1,0.1 150 0,1 -0.5,1.2732051 L-0.5,0.5 A0.5,0.5 180 0,1 -0,-0 L7,0 A0.5,0.5 270 0,1 7.5,0.5 L7.5,1.2732051 A0.1,0.1 0 0,1 7.4866025,1.3232051 L7.4364915,1.41 A0.06,0.06 210 0,0 7.488453,1.5z" transform="matrix(1,0,0,-1,1.22,7.75)" fill="rgb(0,0,0)" shaper:cutDepth="0.0025" stroke-linecap="round" stroke-linejoin="round" /><path d="M4.89,1.6185085 L4.9767949,1.5683975 A0.1,0.1 240 0,1 5.0267949,1.555 L5.7732051,1.555 A0.1,0.1 270 0,1 5.8232051,1.5683975 L5.91,1.6185085 A0.06,0.06 120 0,0 6,1.566547 L6,1.283453 A0.06,0.06 0 0,0 5.91,1.2314915 L5.8232051,1.2816025 A0.1,0.1 60 0,1 5.7732051,1.295 L5.0267949,1.295 A0.1,0.1 90 0,1 4.9767949,1.2816025 L4.89,1.2314915 A0.06,0.06 300 0,0 4.8,1.283453 L4.8,1.566547 A0.06,0.06 180 0,0 4.89,1.6185085z" transform="matrix(1,0,0,-1,1.22,7.75)" fill="rgb(255,255,255)" stroke="rgb(0,0,0)" stroke-width="0.0010cm" stroke-linecap="round" stroke-linejoin="round" shaper:cutDepth="0.0025" /><path d="M1.09,1.6185085 L1.1767949,1.5683975 A0.1,0.1 240 0,1 1.2267949,1.555 L1.9732051,1.555 A0.1,0.1 270 0,1 2.0232051,1.5683975 L2.11,1.6185085 A0.06,0.06 120 0,0 2.2,1.566547 L2.2,1.283453 A0.06,0.06 0 0,0 2.11,1.2314915 L2.0232051,1.2816025 A0.1,0.1 60 0,1 1.9732051,1.295 L1.2267949,1.295 A0.1,0.1 90 0,1 1.1767949,1.2816025 L1.09,1.2314915 A0.06,0.06 300 0,0 1,1.283453 L1,1.566547 A0.06,0.06 180 0,0 1.09,1.6185085z" transform="matrix(1,0,0,-1,1.22,7.75)" fill="rgb(255,255,255)" stroke="rgb(0,0,0)" stroke-width="0.0010cm" stroke-linecap="round" stroke-linejoin="round" shaper:cutDepth="0.0025" /><path d="M7.76,1.8 L8.02,1.8 8.02,2.4 7.76,2.4 7.76,1.8z" transform="matrix(1,0,0,-1,1.22,7.75)" fill="rgb(255,255,255)" stroke="rgb(0,0,0)" stroke-width="0.0010cm" stroke-linecap="round" stroke-linejoin="round" shaper:cutDepth="0.0025" /><path d="M-1.02,1.8 L-0.76,1.8 -0.76,2.4 -1.02,2.4 -1.02,1.8z" transform="matrix(1,0,0,-1,1.22,7.75)" fill="rgb(255,255,255)" stroke="rgb(0,0,0)" stroke-width="0.0010cm" stroke-linecap="round" stroke-linejoin="round" shaper:cutDepth="0.0025" /><path d="M3.32,0.6 a0.18,0.18 0 1,1 0.36,0 a0.18,0.18 0 1,1 -0.36,0z" transform="matrix(1,0,0,-1,1.22,7.75)" fill="rgb(255,255,255)" stroke="rgb(0,0,0)" stroke-width="0.0010cm" stroke-linecap="round" stroke-linejoin="round" shaper:cutDepth="0.0025" /><path d="M0.3126679,4.0160381 a0.125,0.125 0 1,1 0.25,0 a0.125,0.125 0 1,1 -0.25,0z" transform="matrix(1,0,0,-1,1.22,7.75)" fill="rgb(255,255,255)" stroke="rgb(0,0,0)" stroke-width="0.0010cm" stroke-linecap="round" stroke-linejoin="round" shaper:cutDepth="0.0025" /><path d="M3.759495,3.4082695 a0.125,0.125 0 1,1 0.25,0 a0.125,0.125 0 1,1 -0.25,0z" transform="matrix(1,0,0,-1,1.22,7.75)" fill="rgb(255,255,255)" stroke="rgb(0,0,0)" stroke-width="0.0010cm" stroke-linecap="round" stroke-linejoin="round" shaper:cutDepth="0.0025" /><path d="M5.055,5.2 a0.125,0.125 0 1,1 0.25,0 a0.125,0.125 0 1,1 -0.25,0z" transform="matrix(1,0,0,-1,1.22,7.75)" fill="rgb(255,255,255)" stroke="rgb(0,0,0)" stroke-width="0.0010cm" stroke-linecap="round" stroke-linejoin="round" shaper:cutDepth="0.0025" /><path d="M5.055,3.8 a0.125,0.125 0 1,1 0.25,0 a0.125,0.125 0 1,1 -0.25,0z" transform="matrix(1,0,0,-1,1.22,7.75)" fill="rgb(255,255,255)" stroke="rgb(0,0,0)" stroke-width="0.0010cm" stroke-linecap="round" stroke-linejoin="round" shaper:cutDepth="0.0025" /><path d="M5.025,4.5 a0.155,0.155 0 1,1 0.31,0 a0.155,0.155 0 1,1 -0.31,0z" transform="matrix(1,0,0,-1,1.22,7.75)" fill="rgb(255,255,255)" stroke="rgb(0,0,0)" stroke-width="0.0010cm" stroke-linecap="round" stroke-linejoin="round" shaper:cutDepth="0.0025" /><path d="M1.84,4.5 a0.46,0.46 0 1,1 0.92,0 a0.46,0.46 0 1,1 -0.92,0z" transform="matrix(1,0,0,-1,1.22,7.75)" fill="rgb(255,255,255)" stroke="rgb(0,0,0)" stroke-width="0.0010cm" stroke-linecap="round" stroke-linejoin="round" shaper:cutDepth="0.0025" /></svg>