<?xml version="1.0" encoding="utf-8"?>
<!-- Generator: Fusion 360, Shaper Origin Export Add-In, Version 1.6.3  -->
<svg xmlns="http://www.w3.org/2000/svg" xmlns:xlink="http://www.w3.org/1999/xlink" xmlns:shaper="http://www.shapertools.com/namespaces/shaper" shaper:fusionaddin="version:1.6.3" width="10.75cm" height="20.472389cm" version="1.1" x="0cm" y="0cm" viewBox="0 0 10.75 20.472389" enable-background="new 0 0 10.75 20.472389" xml:space="preserve"><path d="M0.45,5.3 L0.45,5.3001 -0.5,5.3001 -0.5,5.996 0.45,5.996 0.45,5.9961 -0.5,5.9961 -0.5,6.692 0.45,6.692 0.45,6.6921 -0.5,6.6921 -0.5,7.388 0.45,7.388 0.45,7.3881 -0.5,7.3881 -0.5,12.7361945 0.45,12.7361945 0.45,12.7362945 -0.5,12.7362945 -0.5,13.4321945 0.45,13.4321945 0.45,13.4322945 -0.5,13.4322945 -0.5,14.1281945 0.45,14.1281945 0.45,14.1282945 -0.5,14.1282945 -0.5,14.8241945 0.45,14.8241945 0.45,14.8242945 -0.5,14.8242945 -0.5,19.972389 A0.5,0.5 180 0,0 0,20.472389 L9.75,20.472389 A0.5,0.5 90 0,0 10.25,19.972389 L10.25,15.1602945 9.25,15.1602945 9.25,15.1601945 10.25,15.1601945 10.25,14.4642945 9.25,14.4642945 9.25,14.4641945 10.25,14.4641945 10.25,13.7682945 9.25,13.7682945 9.25,13.7681945 10.25,13.7681945 10.25,13.0722945 9.25,13.0722945 9.25,13.0721945 10.25,13.0721945 10.25,7.7241 9.25,7.7241 9.25,7.724 10.25,7.724 10.25,7.0281 9.25,7.0281 9.25,7.028 10.25,7.028 10.25,6.3321 9.25,6.3321 9.25,6.332 10.25,6.332 10.25,5.6361 9.25,5.6361 9.25,5.636 10.25,5.636 10.25,0.5 A0.5,0.5 0 0,0 9.75,0 L0,0 A0.5,0.5 270 0,0 -0.5,0.5 L-0.5,5.3 0.45,5.3z" transform="matrix(1,0,0,-1,0.5,20.472389)" fill="rgb(0,0,0)" shaper:cutDepth="0.0025" stroke-linecap="round" stroke-linejoin="round" /><path d="M-0.35,7.724 L1.65,7.724 1.65,7.7241 -0.35,7.7241 -0.35,7.724z" transform="matrix(1,0,0,-1,0.5,20.472389)" fill="rgb(255,255,255)" stroke="rgb(0,0,0)" stroke-width="0.0010cm" stroke-linecap="round" stroke-linejoin="round" shaper:cutDepth="0.0025" /><path d="M-0.35,15.1601945 L1.65,15.1601945 1.65,15.1602945 -0.35,15.1602945 -0.35,15.1601945z" transform="matrix(1,0,0,-1,0.5,20.472389)" fill="rgb(255,255,255)" stroke="rgb(0,0,0)" stroke-width="0.0010cm" stroke-linecap="round" stroke-linejoin="round" shaper:cutDepth="0.0025" /><path d="M2.05,7.724 L4.05,7.724 4.05,7.7241 2.05,7.7241 2.05,7.724z" transform="matrix(1,0,0,-1,0.5,20.472389)" fill="rgb(255,255,255)" stroke="rgb(0,0,0)" stroke-width="0.0010cm" stroke-linecap="round" stroke-linejoin="round" shaper:cutDepth="0.0025" /><path d="M0.85,14.8241945 L2.85,14.8241945 2.85,14.8242945 0.85,14.8242945 0.85,14.8241945z" transform="matrix(1,0,0,-1,0.5,20.472389)" fill="rgb(255,255,255)" stroke="rgb(0,0,0)" stroke-width="0.0010cm" stroke-linecap="round" stroke-linejoin="round" shaper:cutDepth="0.0025" /><path d="M0.85,7.3881 L0.85,7.388 2.85,7.388 2.85,7.3881 0.85,7.3881z" transform="matrix(1,0,0,-1,0.5,20.472389)" fill="rgb(255,255,255)" stroke="rgb(0,0,0)" stroke-width="0.0010cm" stroke-linecap="round" stroke-linejoin="round" shaper:cutDepth="0.0025" /><path d="M2.05,15.1601945 L4.05,15.1601945 4.05,15.1602945 2.05,15.1602945 2.05,15.1601945z" transform="matrix(1,0,0,-1,0.5,20.472389)" fill="rgb(255,255,255)" stroke="rgb(0,0,0)" stroke-width="0.0010cm" stroke-linecap="round" stroke-linejoin="round" shaper:cutDepth="0.0025" /><path d="M4.45,7.724 L6.45,7.724 6.45,7.7241 4.45,7.7241 4.45,7.724z" transform="matrix(1,0,0,-1,0.5,20.472389)" fill="rgb(255,255,255)" stroke="rgb(0,0,0)" stroke-width="0.0010cm" stroke-linecap="round" stroke-linejoin="round" shaper:cutDepth="0.0025" /><path d="M3.25,14.8241945 L5.25,14.8241945 5.25,14.8242945 3.25,14.8242945 3.25,14.8241945z" transform="matrix(1,0,0,-1,0.5,20.472389)" fill="rgb(255,255,255)" stroke="rgb(0,0,0)" stroke-width="0.0010cm" stroke-linecap="round" stroke-linejoin="round" shaper:cutDepth="0.0025" /><path d="M3.25,7.3881 L3.25,7.388 5.25,7.388 5.25,7.3881 3.25,7.3881z" transform="matrix(1,0,0,-1,0.5,20.472389)" fill="rgb(255,255,255)" stroke="rgb(0,0,0)" stroke-width="0.0010cm" stroke-linecap="round" stroke-linejoin="round" shaper:cutDepth="0.0025" /><path d="M4.45,15.1601945 L6.45,15.1601945 6.45,15.1602945 4.45,15.1602945 4.45,15.1601945z" transform="matrix(1,0,0,-1,0.5,20.472389)" fill="rgb(255,255,255)" stroke="rgb(0,0,0)" stroke-width="0.0010cm" stroke-linecap="round" stroke-linejoin="round" shaper:cutDepth="0.0025" /><path d="M6.85,7.724 L8.85,7.724 8.85,7.7241 6.85,7.7241 6.85,7.724z" transform="matrix(1,0,0,-1,0.5,20.472389)" fill="rgb(255,255,255)" stroke="rgb(0,0,0)" stroke-width="0.0010cm" stroke-linecap="round" stroke-linejoin="round" shaper:cutDepth="0.0025" /><path d="M5.65,14.8241945 L7.65,14.8241945 7.65,14.8242945 5.65,14.8242945 5.65,14.8241945z" transform="matrix(1,0,0,-1,0.5,20.472389)" fill="rgb(255,255,255)" stroke="rgb(0,0,0)" stroke-width="0.0010cm" stroke-linecap="round" stroke-linejoin="round" shaper:cutDepth="0.0025" /><path d="M5.65,7.3881 L5.65,7.388 7.65,7.388 7.65,7.3881 5.65,7.3881z" transform="matrix(1,0,0,-1,0.5,20.472389)" fill="rgb(255,255,255)" stroke="rgb(0,0,0)" stroke-width="0.0010cm" stroke-linecap="round" stroke-linejoin="round" shaper:cutDepth="0.0025" /><path d="M6.85,15.1601945 L8.85,15.1601945 8.85,15.1602945 6.85,15.1602945 6.85,15.1601945z" transform="matrix(1,0,0,-1,0.5,20.472389)" fill="rgb(255,255,255)" stroke="rgb(0,0,0)" stroke-width="0.0010cm" stroke-linecap="round" stroke-linejoin="round" shaper:cutDepth="0.0025" /><path d="M8.05,14.8241945 L10.05,14.8241945 10.05,14.8242945 8.05,14.8242945 8.05,14.8241945z" transform="matrix(1,0,0,-1,0.5,20.472389)" fill="rgb(255,255,255)" stroke="rgb(0,0,0)" stroke-width="0.0010cm" stroke-linecap="round" stroke-linejoin="round" shaper:cutDepth="0.0025" /><path d="M8.05,7.3881 L8.05,7.388 10.05,7.388 10.05,7.3881 8.05,7.3881z" transform="matrix(1,0,0,-1,0.5,20.472389)" fill="rgb(255,255,255)" stroke="rgb(0,0,0)" stroke-width="0.0010cm" stroke-linecap="round" stroke-linejoin="round" shaper:cutDepth="0.0025" /><path d="M-0.35,7.028 L1.65,7.028 1.65,7.0281 -0.35,7.0281 -0.35,7.028z" transform="matrix(1,0,0,-1,0.5,20.472389)" fill="rgb(255,255,255)" stroke="rgb(0,0,0)" stroke-width="0.0010cm" stroke-linecap="round" stroke-linejoin="round" shaper:cutDepth="0.0025" /><path d="M-0.35,14.4641945 L1.65,14.4641945 1.65,14.4642945 -0.35,14.4642945 -0.35,14.4641945z" transform="matrix(1,0,0,-1,0.5,20.472389)" fill="rgb(255,255,255)" stroke="rgb(0,0,0)" stroke-width="0.0010cm" stroke-linecap="round" stroke-linejoin="round" shaper:cutDepth="0.0025" /><path d="M2.05,7.028 L4.05,7.028 4.05,7.0281 2.05,7.0281 2.05,7.028z" transform="matrix(1,0,0,-1,0.5,20.472389)" fill="rgb(255,255,255)" stroke="rgb(0,0,0)" stroke-width="0.0010cm" stroke-linecap="round" stroke-linejoin="round" shaper:cutDepth="0.0025" /><path d="M0.85,14.1281945 L2.85,14.1281945 2.85,14.1282945 0.85,14.1282945 0.85,14.1281945z" transform="matrix(1,0,0,-1,0.5,20.472389)" fill="rgb(255,255,255)" stroke="rgb(0,0,0)" stroke-width="0.0010cm" stroke-linecap="round" stroke-linejoin="round" shaper:cutDepth="0.0025" /><path d="M0.85,6.6921 L0.85,6.692 2.85,6.692 2.85,6.6921 0.85,6.6921z" transform="matrix(1,0,0,-1,0.5,20.472389)" fill="rgb(255,255,255)" stroke="rgb(0,0,0)" stroke-width="0.0010cm" stroke-linecap="round" stroke-linejoin="round" shaper:cutDepth="0.0025" /><path d="M2.05,14.4641945 L4.05,14.4641945 4.05,14.4642945 2.05,14.4642945 2.05,14.4641945z" transform="matrix(1,0,0,-1,0.5,20.472389)" fill="rgb(255,255,255)" stroke="rgb(0,0,0)" stroke-width="0.0010cm" stroke-linecap="round" stroke-linejoin="round" shaper:cutDepth="0.0025" /><path d="M4.45,7.028 L6.45,7.028 6.45,7.0281 4.45,7.0281 4.45,7.028z" transform="matrix(1,0,0,-1,0.5,20.472389)" fill="rgb(255,255,255)" stroke="rgb(0,0,0)" stroke-width="0.0010cm" stroke-linecap="round" stroke-linejoin="round" shaper:cutDepth="0.0025" /><path d="M3.25,14.1281945 L5.25,14.1281945 5.25,14.1282945 3.25,14.1282945 3.25,14.1281945z" transform="matrix(1,0,0,-1,0.5,20.472389)" fill="rgb(255,255,255)" stroke="rgb(0,0,0)" stroke-width="0.0010cm" stroke-linecap="round" stroke-linejoin="round" shaper:cutDepth="0.0025" /><path d="M3.25,6.6921 L3.25,6.692 5.25,6.692 5.25,6.6921 3.25,6.6921z" transform="matrix(1,0,0,-1,0.5,20.472389)" fill="rgb(255,255,255)" stroke="rgb(0,0,0)" stroke-width="0.0010cm" stroke-linecap="round" stroke-linejoin="round" shaper:cutDepth="0.0025" /><path d="M4.45,14.4641945 L6.45,14.4641945 6.45,14.4642945 4.45,14.4642945 4.45,14.4641945z" transform="matrix(1,0,0,-1,0.5,20.472389)" fill="rgb(255,255,255)" stroke="rgb(0,0,0)" stroke-width="0.0010cm" stroke-linecap="round" stroke-linejoin="round" shaper:cutDepth="0.0025" /><path d="M6.85,7.028 L8.85,7.028 8.85,7.0281 6.85,7.0281 6.85,7.028z" transform="matrix(1,0,0,-1,0.5,20.472389)" fill="rgb(255,255,255)" stroke="rgb(0,0,0)" stroke-width="0.0010cm" stroke-linecap="round" stroke-linejoin="round" shaper:cutDepth="0.0025" /><path d="M5.65,14.1281945 L7.65,14.1281945 7.65,14.1282945 5.65,14.1282945 5.65,14.1281945z" transform="matrix(1,0,0,-1,0.5,20.472389)" fill="rgb(255,255,255)" stroke="rgb(0,0,0)" stroke-width="0.0010cm" stroke-linecap="round" stroke-linejoin="round" shaper:cutDepth="0.0025" /><path d="M5.65,6.6921 L5.65,6.692 7.65,6.692 7.65,6.6921 5.65,6.6921z" transform="matrix(1,0,0,-1,0.5,20.472389)" fill="rgb(255,255,255)" stroke="rgb(0,0,0)" stroke-width="0.0010cm" stroke-linecap="round" stroke-linejoin="round" shaper:cutDepth="0.0025" /><path d="M6.85,14.4641945 L8.85,14.4641945 8.85,14.4642945 6.85,14.4642945 6.85,14.4641945z" transform="matrix(1,0,0,-1,0.5,20.472389)" fill="rgb(255,255,255)" stroke="rgb(0,0,0)" stroke-width="0.0010cm" stroke-linecap="round" stroke-linejoin="round" shaper:cutDepth="0.0025" /><path d="M8.05,14.1281945 L10.05,14.1281945 10.05,14.1282945 8.05,14.1282945 8.05,14.1281945z" transform="matrix(1,0,0,-1,0.5,20.472389)" fill="rgb(255,255,255)" stroke="rgb(0,0,0)" stroke-width="0.0010cm" stroke-linecap="round" stroke-linejoin="round" shaper:cutDepth="0.0025" /><path d="M8.05,6.6921 L8.05,6.692 10.05,6.692 10.05,6.6921 8.05,6.6921z" transform="matrix(1,0,0,-1,0.5,20.472389)" fill="rgb(255,255,255)" stroke="rgb(0,0,0)" stroke-width="0.0010cm" stroke-linecap="round" stroke-linejoin="round" shaper:cutDepth="0.0025" /><path d="M-0.35,6.332 L1.65,6.332 1.65,6.3321 -0.35,6.3321 -0.35,6.332z" transform="matrix(1,0,0,-1,0.5,20.472389)" fill="rgb(255,255,255)" stroke="rgb(0,0,0)" stroke-width="0.0010cm" stroke-linecap="round" stroke-linejoin="round" shaper:cutDepth="0.0025" /><path d="M-0.35,13.7681945 L1.65,13.7681945 1.65,13.7682945 -0.35,13.7682945 -0.35,13.7681945z" transform="matrix(1,0,0,-1,0.5,20.472389)" fill="rgb(255,255,255)" stroke="rgb(0,0,0)" stroke-width="0.0010cm" stroke-linecap="round" stroke-linejoin="round" shaper:cutDepth="0.0025" /><path d="M2.05,6.332 L4.05,6.332 4.05,6.3321 2.05,6.3321 2.05,6.332z" transform="matrix(1,0,0,-1,0.5,20.472389)" fill="rgb(255,255,255)" stroke="rgb(0,0,0)" stroke-width="0.0010cm" stroke-linecap="round" stroke-linejoin="round" shaper:cutDepth="0.0025" /><path d="M0.85,13.4321945 L2.85,13.4321945 2.85,13.4322945 0.85,13.4322945 0.85,13.4321945z" transform="matrix(1,0,0,-1,0.5,20.472389)" fill="rgb(255,255,255)" stroke="rgb(0,0,0)" stroke-width="0.0010cm" stroke-linecap="round" stroke-linejoin="round" shaper:cutDepth="0.0025" /><path d="M0.85,5.9961 L0.85,5.996 2.85,5.996 2.85,5.9961 0.85,5.9961z" transform="matrix(1,0,0,-1,0.5,20.472389)" fill="rgb(255,255,255)" stroke="rgb(0,0,0)" stroke-width="0.0010cm" stroke-linecap="round" stroke-linejoin="round" shaper:cutDepth="0.0025" /><path d="M2.05,13.7681945 L4.05,13.7681945 4.05,13.7682945 2.05,13.7682945 2.05,13.7681945z" transform="matrix(1,0,0,-1,0.5,20.472389)" fill="rgb(255,255,255)" stroke="rgb(0,0,0)" stroke-width="0.0010cm" stroke-linecap="round" stroke-linejoin="round" shaper:cutDepth="0.0025" /><path d="M4.45,6.332 L6.45,6.332 6.45,6.3321 4.45,6.3321 4.45,6.332z" transform="matrix(1,0,0,-1,0.5,20.472389)" fill="rgb(255,255,255)" stroke="rgb(0,0,0)" stroke-width="0.0010cm" stroke-linecap="round" stroke-linejoin="round" shaper:cutDepth="0.0025" /><path d="M3.25,13.4321945 L5.25,13.4321945 5.25,13.4322945 3.25,13.4322945 3.25,13.4321945z" transform="matrix(1,0,0,-1,0.5,20.472389)" fill="rgb(255,255,255)" stroke="rgb(0,0,0)" stroke-width="0.0010cm" stroke-linecap="round" stroke-linejoin="round" shaper:cutDepth="0.0025" /><path d="M3.25,5.9961 L3.25,5.996 5.25,5.996 5.25,5.9961 3.25,5.9961z" transform="matrix(1,0,0,-1,0.5,20.472389)" fill="rgb(255,255,255)" stroke="rgb(0,0,0)" stroke-width="0.0010cm" stroke-linecap="round" stroke-linejoin="round" shaper:cutDepth="0.0025" /><path d="M4.45,13.7681945 L6.45,13.7681945 6.45,13.7682945 4.45,13.7682945 4.45,13.7681945z" transform="matrix(1,0,0,-1,0.5,20.472389)" fill="rgb(255,255,255)" stroke="rgb(0,0,0)" stroke-width="0.0010cm" stroke-linecap="round" stroke-linejoin="round" shaper:cutDepth="0.0025" /><path d="M6.85,6.332 L8.85,6.332 8.85,6.3321 6.85,6.3321 6.85,6.332z" transform="matrix(1,0,0,-1,0.5,20.472389)" fill="rgb(255,255,255)" stroke="rgb(0,0,0)" stroke-width="0.0010cm" stroke-linecap="round" stroke-linejoin="round" shaper:cutDepth="0.0025" /><path d="M5.65,13.4321945 L7.65,13.4321945 7.65,13.4322945 5.65,13.4322945 5.65,13.4321945z" transform="matrix(1,0,0,-1,0.5,20.472389)" fill="rgb(255,255,255)" stroke="rgb(0,0,0)" stroke-width="0.0010cm" stroke-linecap="round" stroke-linejoin="round" shaper:cutDepth="0.0025" /><path d="M5.65,5.9961 L5.65,5.996 7.65,5.996 7.65,5.9961 5.65,5.9961z" transform="matrix(1,0,0,-1,0.5,20.472389)" fill="rgb(255,255,255)" stroke="rgb(0,0,0)" stroke-width="0.0010cm" stroke-linecap="round" stroke-linejoin="round" shaper:cutDepth="0.0025" /><path d="M6.85,13.7681945 L8.85,13.7681945 8.85,13.7682945 6.85,13.7682945 6.85,13.7681945z" transform="matrix(1,0,0,-1,0.5,20.472389)" fill="rgb(255,255,255)" stroke="rgb(0,0,0)" stroke-width="0.0010cm" stroke-linecap="round" stroke-linejoin="round" shaper:cutDepth="0.0025" /><path d="M8.05,13.4321945 L10.05,13.4321945 10.05,13.4322945 8.05,13.4322945 8.05,13.4321945z" transform="matrix(1,0,0,-1,0.5,20.472389)" fill="rgb(255,255,255)" stroke="rgb(0,0,0)" stroke-width="0.0010cm" stroke-linecap="round" stroke-linejoin="round" shaper:cutDepth="0.0025" /><path d="M8.05,5.9961 L8.05,5.996 10.05,5.996 10.05,5.9961 8.05,5.9961z" transform="matrix(1,0,0,-1,0.5,20.472389)" fill="rgb(255,255,255)" stroke="rgb(0,0,0)" stroke-width="0.0010cm" stroke-linecap="round" stroke-linejoin="round" shaper:cutDepth="0.0025" /><path d="M-0.35,5.636 L1.65,5.636 1.65,5.6361 -0.35,5.6361 -0.35,5.636z" transform="matrix(1,0,0,-1,0.5,20.472389)" fill="rgb(255,255,255)" stroke="rgb(0,0,0)" stroke-width="0.0010cm" stroke-linecap="round" stroke-linejoin="round" shaper:cutDepth="0.0025" /><path d="M-0.35,13.0721945 L1.65,13.0721945 1.65,13.0722945 -0.35,13.0722945 -0.35,13.0721945z" transform="matrix(1,0,0,-1,0.5,20.472389)" fill="rgb(255,255,255)" stroke="rgb(0,0,0)" stroke-width="0.0010cm" stroke-linecap="round" stroke-linejoin="round" shaper:cutDepth="0.0025" /><path d="M2.05,5.636 L4.05,5.636 4.05,5.6361 2.05,5.6361 2.05,5.636z" transform="matrix(1,0,0,-1,0.5,20.472389)" fill="rgb(255,255,255)" stroke="rgb(0,0,0)" stroke-width="0.0010cm" stroke-linecap="round" stroke-linejoin="round" shaper:cutDepth="0.0025" /><path d="M0.85,12.7361945 L2.85,12.7361945 2.85,12.7362945 0.85,12.7362945 0.85,12.7361945z" transform="matrix(1,0,0,-1,0.5,20.472389)" fill="rgb(255,255,255)" stroke="rgb(0,0,0)" stroke-width="0.0010cm" stroke-linecap="round" stroke-linejoin="round" shaper:cutDepth="0.0025" /><path d="M0.85,5.3001 L0.85,5.3 2.85,5.3 2.85,5.3001 0.85,5.3001z" transform="matrix(1,0,0,-1,0.5,20.472389)" fill="rgb(255,255,255)" stroke="rgb(0,0,0)" stroke-width="0.0010cm" stroke-linecap="round" stroke-linejoin="round" shaper:cutDepth="0.0025" /><path d="M2.05,13.0721945 L4.05,13.0721945 4.05,13.0722945 2.05,13.0722945 2.05,13.0721945z" transform="matrix(1,0,0,-1,0.5,20.472389)" fill="rgb(255,255,255)" stroke="rgb(0,0,0)" stroke-width="0.0010cm" stroke-linecap="round" stroke-linejoin="round" shaper:cutDepth="0.0025" /><path d="M4.45,5.636 L6.45,5.636 6.45,5.6361 4.45,5.6361 4.45,5.636z" transform="matrix(1,0,0,-1,0.5,20.472389)" fill="rgb(255,255,255)" stroke="rgb(0,0,0)" stroke-width="0.0010cm" stroke-linecap="round" stroke-linejoin="round" shaper:cutDepth="0.0025" /><path d="M3.25,12.7361945 L5.25,12.7361945 5.25,12.7362945 3.25,12.7362945 3.25,12.7361945z" transform="matrix(1,0,0,-1,0.5,20.472389)" fill="rgb(255,255,255)" stroke="rgb(0,0,0)" stroke-width="0.0010cm" stroke-linecap="round" stroke-linejoin="round" shaper:cutDepth="0.0025" /><path d="M3.25,5.3001 L3.25,5.3 5.25,5.3 5.25,5.3001 3.25,5.3001z" transform="matrix(1,0,0,-1,0.5,20.472389)" fill="rgb(255,255,255)" stroke="rgb(0,0,0)" stroke-width="0.0010cm" stroke-linecap="round" stroke-linejoin="round" shaper:cutDepth="0.0025" /><path d="M4.45,13.0721945 L6.45,13.0721945 6.45,13.0722945 4.45,13.0722945 4.45,13.0721945z" transform="matrix(1,0,0,-1,0.5,20.472389)" fill="rgb(255,255,255)" stroke="rgb(0,0,0)" stroke-width="0.0010cm" stroke-linecap="round" stroke-linejoin="round" shaper:cutDepth="0.0025" /><path d="M6.85,5.636 L8.85,5.636 8.85,5.6361 6.85,5.6361 6.85,5.636z" transform="matrix(1,0,0,-1,0.5,20.472389)" fill="rgb(255,255,255)" stroke="rgb(0,0,0)" stroke-width="0.0010cm" stroke-linecap="round" stroke-linejoin="round" shaper:cutDepth="0.0025" /><path d="M5.65,12.7361945 L7.65,12.7361945 7.65,12.7362945 5.65,12.7362945 5.65,12.7361945z" transform="matrix(1,0,0,-1,0.5,20.472389)" fill="rgb(255,255,255)" stroke="rgb(0,0,0)" stroke-width="0.0010cm" stroke-linecap="round" stroke-linejoin="round" shaper:cutDepth="0.0025" /><path d="M5.65,5.3001 L5.65,5.3 7.65,5.3 7.65,5.3001 5.65,5.3001z" transform="matrix(1,0,0,-1,0.5,20.472389)" fill="rgb(255,255,255)" stroke="rgb(0,0,0)" stroke-width="0.0010cm" stroke-linecap="round" stroke-linejoin="round" shaper:cutDepth="0.0025" /><path d="M6.85,13.0721945 L8.85,13.0721945 8.85,13.0722945 6.85,13.0722945 6.85,13.0721945z" transform="matrix(1,0,0,-1,0.5,20.472389)" fill="rgb(255,255,255)" stroke="rgb(0,0,0)" stroke-width="0.0010cm" stroke-linecap="round" stroke-linejoin="round" shaper:cutDepth="0.0025" /><path d="M8.05,12.7361945 L10.05,12.7361945 10.05,12.7362945 8.05,12.7362945 8.05,12.7361945z" transform="matrix(1,0,0,-1,0.5,20.472389)" fill="rgb(255,255,255)" stroke="rgb(0,0,0)" stroke-width="0.0010cm" stroke-linecap="round" stroke-linejoin="round" shaper:cutDepth="0.0025" /><path d="M8.05,5.3001 L8.05,5.3 10.05,5.3 10.05,5.3001 8.05,5.3001z" transform="matrix(1,0,0,-1,0.5,20.472389)" fill="rgb(255,255,255)" stroke="rgb(0,0,0)" stroke-width="0.0010cm" stroke-linecap="round" stroke-linejoin="round" shaper:cutDepth="0.0025" /><path d="M4.475,19.472389 A0.1,0.1 180 0,1 4.575,19.372389 L5.175,19.372389 A0.1,0.1 270 0,1 5.275,19.472389 L5.275,19.872389 A0.1,0.1 0 0,1 5.175,19.972389 L4.575,19.972389 A0.1,0.1 90 0,1 4.475,19.872389 L4.475,19.472389z" transform="matrix(1,0,0,-1,0.5,20.472389)" fill="rgb(255,255,255)" stroke="rgb(0,0,0)" stroke-width="0.0010cm" stroke-linecap="round" stroke-linejoin="round" shaper:cutDepth="0.0025" /><path d="M4.475,0.6 A0.1,0.1 180 0,1 4.575,0.5 L5.175,0.5 A0.1,0.1 270 0,1 5.275,0.6 L5.275,1 A0.1,0.1 0 0,1 5.175,1.1 L4.575,1.1 A0.1,0.1 90 0,1 4.475,1 L4.475,0.6z" transform="matrix(1,0,0,-1,0.5,20.472389)" fill="rgb(255,255,255)" stroke="rgb(0,0,0)" stroke-width="0.0010cm" stroke-linecap="round" stroke-linejoin="round" shaper:cutDepth="0.0025" /><path d="M0.7,5 A0.2,0.2 90 0,1 0.5,4.8 L0.5,3.2 A0.2,0.2 180 0,1 0.7,3 L2.5,3 A0.2,0.2 270 0,1 2.7,3.2 L2.7,4.8 A0.2,0.2 0 0,1 2.5,5 L0.7,5z" transform="matrix(1,0,0,-1,0.5,20.472389)" fill="rgb(255,255,255)" stroke="rgb(0,0,0)" stroke-width="0.0010cm" stroke-linecap="round" stroke-linejoin="round" shaper:cutDepth="0.0025" /><path d="M3.95,5 A0.2,0.2 90 0,1 3.75,4.8 L3.75,3.2 A0.2,0.2 180 0,1 3.95,3 L4.75,3 A0.2,0.2 270 0,1 4.95,3.2 L4.95,4.8 A0.2,0.2 0 0,1 4.75,5 L3.95,5z" transform="matrix(1,0,0,-1,0.5,20.472389)" fill="rgb(255,255,255)" stroke="rgb(0,0,0)" stroke-width="0.0010cm" stroke-linecap="round" stroke-linejoin="round" shaper:cutDepth="0.0025" /><path d="M6.2,5 A0.2,0.2 90 0,1 6,4.8 L6,3.2 A0.2,0.2 180 0,1 6.2,3 L7,3 A0.2,0.2 270 0,1 7.2,3.2 L7.2,4.8 A0.2,0.2 0 0,1 7,5 L6.2,5z" transform="matrix(1,0,0,-1,0.5,20.472389)" fill="rgb(255,255,255)" stroke="rgb(0,0,0)" stroke-width="0.0010cm" stroke-linecap="round" stroke-linejoin="round" shaper:cutDepth="0.0025" /><path d="M8.45,5 A0.2,0.2 90 0,1 8.25,4.8 L8.25,3.2 A0.2,0.2 180 0,1 8.45,3 L9.25,3 A0.2,0.2 270 0,1 9.45,3.2 L9.45,4.8 A0.2,0.2 0 0,1 9.25,5 L8.45,5z" transform="matrix(1,0,0,-1,0.5,20.472389)" fill="rgb(255,255,255)" stroke="rgb(0,0,0)" stroke-width="0.0010cm" stroke-linecap="round" stroke-linejoin="round" shaper:cutDepth="0.0025" /><path d="M0.271547,19.672389 L-0.011547,19.672389 A0.06,0.06 90 0,1 -0.0635085,19.582389 L0,19.472389 0,18.272389 -0.0635085,18.162389 A0.06,0.06 150 0,1 -0.011547,18.072389 L0.271547,18.072389 A0.06,0.06 270 0,1 0.3235085,18.162389 L0.26,18.272389 0.26,19.472389 0.3235085,19.582389 A0.06,0.06 330 0,1 0.271547,19.672389z" transform="matrix(1,0,0,-1,0.5,20.472389)" fill="rgb(255,255,255)" stroke="rgb(0,0,0)" stroke-width="0.0010cm" stroke-linecap="round" stroke-linejoin="round" shaper:cutDepth="0.0025" /><path d="M0.271547,2.22 L-0.011547,2.22 A0.06,0.06 90 0,1 -0.0635085,2.13 L0,2.02 0,1.18 -0.0635085,1.07 A0.06,0.06 150 0,1 -0.011547,0.98 L0.271547,0.98 A0.06,0.06 270 0,1 0.3235085,1.07 L0.26,1.18 0.26,2.02 0.3235085,2.13 A0.06,0.06 330 0,1 0.271547,2.22z" transform="matrix(1,0,0,-1,0.5,20.472389)" fill="rgb(255,255,255)" stroke="rgb(0,0,0)" stroke-width="0.0010cm" stroke-linecap="round" stroke-linejoin="round" shaper:cutDepth="0.0025" /><path d="M0,9.6361945 L-0.0635085,9.5261945 A0.06,0.06 150 0,1 -0.011547,9.4361945 L0.271547,9.4361945 A0.06,0.06 270 0,1 0.3235085,9.5261945 L0.26,9.6361945 0.26,10.8361945 0.3235085,10.9461945 A0.06,0.06 330 0,1 0.271547,11.0361945 L-0.011547,11.0361945 A0.06,0.06 90 0,1 -0.0635085,10.9461945 L0,10.8361945 0,9.6361945z" transform="matrix(1,0,0,-1,0.5,20.472389)" fill="rgb(255,255,255)" stroke="rgb(0,0,0)" stroke-width="0.0010cm" stroke-linecap="round" stroke-linejoin="round" shaper:cutDepth="0.0025" /><path d="M9.8135085,19.582389 L9.7633975,19.4955941 A0.1,0.1 150 0,1 9.75,19.4455941 L9.75,18.2991839 A0.1,0.1 180 0,1 9.7633975,18.2491839 L9.8135085,18.162389 A0.06,0.06 30 0,0 9.761547,18.072389 L9.478453,18.072389 A0.06,0.06 270 0,0 9.4264915,18.162389 L9.49,18.272389 9.49,19.472389 9.4264915,19.582389 A0.06,0.06 210 0,0 9.478453,19.672389 L9.761547,19.672389 A0.06,0.06 90 0,0 9.8135085,19.582389z" transform="matrix(1,0,0,-1,0.5,20.472389)" fill="rgb(255,255,255)" stroke="rgb(0,0,0)" stroke-width="0.0010cm" stroke-linecap="round" stroke-linejoin="round" shaper:cutDepth="0.0025" /><path d="M9.8135085,10.9461945 L9.7633975,10.8593996 A0.1,0.1 150 0,1 9.75,10.8093996 L9.75,9.6629894 A0.1,0.1 180 0,1 9.7633975,9.6129894 L9.8135085,9.5261945 A0.06,0.06 30 0,0 9.761547,9.4361945 L9.478453,9.4361945 A0.06,0.06 270 0,0 9.4264915,9.5261945 L9.49,9.6361945 9.49,10.8361945 9.4264915,10.9461945 A0.06,0.06 210 0,0 9.478453,11.0361945 L9.761547,11.0361945 A0.06,0.06 90 0,0 9.8135085,10.9461945z" transform="matrix(1,0,0,-1,0.5,20.472389)" fill="rgb(255,255,255)" stroke="rgb(0,0,0)" stroke-width="0.0010cm" stroke-linecap="round" stroke-linejoin="round" shaper:cutDepth="0.0025" /><path d="M9.8135085,2.13 L9.7633975,2.0432051 A0.1,0.1 150 0,1 9.75,1.9932051 L9.75,1.2067949 A0.1,0.1 180 0,1 9.7633975,1.1567949 L9.8135085,1.07 A0.06,0.06 30 0,0 9.761547,0.98 L9.478453,0.98 A0.06,0.06 270 0,0 9.4264915,1.07 L9.49,1.18 9.49,2.02 9.4264915,2.13 A0.06,0.06 210 0,0 9.478453,2.22 L9.761547,2.22 A0.06,0.06 90 0,0 9.8135085,2.13z" transform="matrix(1,0,0,-1,0.5,20.472389)" fill="rgb(255,255,255)" stroke="rgb(0,0,0)" stroke-width="0.0010cm" stroke-linecap="round" stroke-linejoin="round" shaper:cutDepth="0.0025" /></svg>