<?xml version="1.0" encoding="utf-8"?>
<!-- Generator: Fusion 360, Shaper Origin Export Add-In, Version 1.6.3  -->
<svg xmlns="http://www.w3.org/2000/svg" xmlns:xlink="http://www.w3.org/1999/xlink" xmlns:shaper="http://www.shapertools.com/namespaces/shaper" shaper:fusionaddin="version:1.6.3" width="1.2cm" height="1.1cm" version="1.1" x="0cm" y="0cm" viewBox="0 0 1.2 1.1" enable-background="new 0 0 1.2 1.1" xml:space="preserve"><path d="M0.22,0.4595855 L0.1732051,0.4866025 A0.1,0.1 60 0,1 0.1232051,0.5 L0,0.5 A0.1,0.1 90 0,1 -0.1,0.4 L-0.1,0.1 A0.1,0.1 180 0,1 0,-0 L1,-0 A0.1,0.1 270 0,1 1.1,0.1 L1.1,0.4 A0.1,0.1 0 0,1 1,0.5 L0.8767949,0.5 A0.1,0.1 90 0,1 0.8267949,0.4866025 L0.78,0.4595855 A0.02,0.02 300 0,0 0.75,0.476906 L0.75,0.8732051 A0.1,0.1 0 0,1 0.7366025,0.9232051 L0.6633975,1.05 A0.1,0.1 30 0,1 0.5767949,1.1 L0.4232051,1.1 A0.1,0.1 90 0,1 0.3366025,1.05 L0.2633975,0.9232051 A0.1,0.1 150 0,1 0.25,0.8732051 L0.25,0.476906 A0.02,0.02 0 0,0 0.22,0.4595855z" transform="matrix(1,0,0,-1,0.1,1.1)" fill="rgb(0,0,0)" shaper:cutDepth="0.0025" stroke-linecap="round" stroke-linejoin="round" /></svg>